# xmcd CD database file
# Copyright (C) 1993-1998 Ti Kan
#
# Track frame offsets:
# 150
# 16152
# 35630
# 49830
# 68000
# 86602
# 101110
# 111892
# 128672
# 138700
# 149447
# 160322
# 173590
# 185782
#
# Disc length: 2635 seconds
# Revision: 0
# Processed by: cddbd v1.4b41PL1 Copyright (c) Steve Scherf et al.
# Submitted via: CDSpectrumPro v3.2.328
#
DISCID=c70a490e
DTITLE=Lightnin' Charlie And The Upsetters - Don't Touch That Dial
DYEAR=1900
DGENRE=
TTITLE0=You're My Baby
TTITLE1=You're The Boss (With Hot Sauce)
TTITLE2=Burning Love
TTITLE3=No More
TTITLE4=World Of Memories
TTITLE5=There Oughta Be A Law
TTITLE6=Jambalaya
TTITLE7=If I Didn't Love Ya'
TTITLE8=Honey, Let's Go Shopping
TTITLE9=Tweedle Dee
TTITLE10=Anyway
TTITLE11=And I Don't Mean Maybe
TTITLE12=Kung-Fu Fighting
TTITLE13=My Best Friend
EXTD=
EXTT0=
EXTT1=Dedicated to Muhammad Ali and Bundini Brown
EXTT2=
EXTT3=
EXTT4=
EXTT5=
EXTT6=
EXTT7=
EXTT8=
EXTT9=
EXTT10=
EXTT11=
EXTT12=
EXTT13=
PLAYORDER=
